M48
METRIC,LZ,000.000
;FILE_FORMAT=3:3
;TYPE=PLATED
;Layer: PTH_Through
;EasyEDA v6.5.23, 2023-06-25 18:40:03
;6b10e09a02d447a1920506d39c92bb1f,f3d5b93f6eed4f979a6c9236d77c88b5,10
;Gerber Generator version 0.2
;Holesize 1 = 0.701 mm
T01C0.701
;Holesize 2 = 0.915 mm
T02C0.915
;Holesize 3 = 1.000 mm
T03C1.000
;Holesize 4 = 1.001 mm
T04C1.001
;Holesize 5 = 1.067 mm
T05C1.067
%
G05
G90
T01
X041783Y013018
X034417Y012891
T02
X003937Y057023
X027178Y-005842
X004064Y052070
X029337Y-005842
X031496Y-005842
X033655Y-005842
T03
X049557Y026248
X047017Y026248
X044477Y026248
X041937Y026248
X039397Y026248
X036857Y026248
X034317Y026248
X031777Y026248
X029237Y026248
X026697Y026248
X001297Y026248
X003837Y026248
X006377Y026248
X008917Y026248
X011457Y026248
X013997Y026248
X016537Y026248
X019077Y026248
X021617Y026248
X024157Y026248
X024157Y044028
X021617Y044028
X019077Y044028
X016537Y044028
X013997Y044028
X011457Y044028
X008917Y044028
X006377Y044028
X003837Y044028
X001297Y044028
X026697Y044028
X029237Y044028
X031777Y044028
X034317Y044028
X036857Y044028
X039397Y044028
X041937Y044028
X044477Y044028
X047017Y044028
X049557Y044028
T04
X021717Y055245
X024257Y055245
X026797Y055245
X029337Y055245
X031877Y055245
X034417Y055245
X036957Y055245
X039497Y055245
X021717Y094615
X024257Y094615
X026797Y094615
X029337Y094615
X031877Y094615
X034417Y094615
X036957Y094615
X039497Y094615
X018542Y002921
X018542Y005461
X018542Y008001
X018542Y010541
X018542Y013081
X018542Y000381
X048641Y-002540
X051181Y-002540
T05
X051054Y010414
X051054Y012954
X051054Y015494
M30
