G04 Layer: TopLayer*
G04 EasyEDA v6.5.23, 2023-06-25 18:40:03*
G04 6b10e09a02d447a1920506d39c92bb1f,f3d5b93f6eed4f979a6c9236d77c88b5,10*
G04 Gerber Generator version 0.2*
G04 Scale: 100 percent, Rotated: No, Reflected: No *
G04 Dimensions in millimeters *
G04 leading zeros omitted , absolute positions ,4 integer and 5 decimal *
%FSLAX45Y45*%
%MOMM*%

%ADD10C,0.2032*%
%ADD11C,0.3000*%
%ADD12C,1.6000*%
%ADD13R,1.6000X1.6000*%
%ADD14R,1.3995X1.3995*%
%ADD15C,1.3995*%
%ADD16C,1.5240*%
%ADD17C,1.7780*%
%ADD18O,2.999994X1.524*%
%ADD19O,1.524X2.999994*%

%LPD*%
D10*
X51307Y5112257D02*
G01*
X217423Y5112257D01*
X134365Y5029200D02*
G01*
X134365Y5195570D01*
X134365Y5683250D02*
G01*
X134365Y5849365D01*
X2195322Y1968500D02*
G01*
X2389124Y1968500D01*
X2241550Y2038604D02*
G01*
X2232152Y2038604D01*
X2213609Y2048002D01*
X2204465Y2057145D01*
X2195322Y2075687D01*
X2195322Y2112518D01*
X2204465Y2131060D01*
X2213609Y2140204D01*
X2232152Y2149602D01*
X2250693Y2149602D01*
X2269236Y2140204D01*
X2296922Y2121915D01*
X2389124Y2029460D01*
X2389124Y2158745D01*
X2241550Y2358389D02*
G01*
X2223008Y2348992D01*
X2204465Y2330450D01*
X2195322Y2312162D01*
X2195322Y2275078D01*
X2204465Y2256789D01*
X2223008Y2238247D01*
X2241550Y2228850D01*
X2269236Y2219705D01*
X2315209Y2219705D01*
X2343150Y2228850D01*
X2361438Y2238247D01*
X2379979Y2256789D01*
X2389124Y2275078D01*
X2389124Y2312162D01*
X2379979Y2330450D01*
X2361438Y2348992D01*
X2343150Y2358389D01*
X4598156Y1615947D02*
G01*
X4591298Y1629410D01*
X4577582Y1643126D01*
X4563866Y1649984D01*
X4536688Y1649984D01*
X4522972Y1643126D01*
X4509510Y1629410D01*
X4502652Y1615947D01*
X4495794Y1595373D01*
X4495794Y1561337D01*
X4502652Y1540763D01*
X4509510Y1527302D01*
X4522972Y1513586D01*
X4536688Y1506728D01*
X4563866Y1506728D01*
X4577582Y1513586D01*
X4591298Y1527302D01*
X4598156Y1540763D01*
X4598156Y1561337D01*
X4563866Y1561337D02*
G01*
X4598156Y1561337D01*
X4643114Y1649984D02*
G01*
X4643114Y1506728D01*
X4643114Y1649984D02*
G01*
X4738618Y1506728D01*
X4738618Y1649984D02*
G01*
X4738618Y1506728D01*
X4783576Y1649984D02*
G01*
X4783576Y1506728D01*
X4783576Y1649984D02*
G01*
X4831328Y1649984D01*
X4851648Y1643126D01*
X4865364Y1629410D01*
X4872222Y1615947D01*
X4879080Y1595373D01*
X4879080Y1561337D01*
X4872222Y1540763D01*
X4865364Y1527302D01*
X4851648Y1513586D01*
X4831328Y1506728D01*
X4783576Y1506728D01*
X4622800Y1370584D02*
G01*
X4622800Y1227328D01*
X4622800Y1370584D02*
G01*
X4670552Y1370584D01*
X4690872Y1363726D01*
X4704588Y1350010D01*
X4711445Y1336547D01*
X4718304Y1315973D01*
X4718304Y1281937D01*
X4711445Y1261363D01*
X4704588Y1247902D01*
X4690872Y1234186D01*
X4670552Y1227328D01*
X4622800Y1227328D01*
X4804156Y1370584D02*
G01*
X4790440Y1363726D01*
X4776977Y1350010D01*
X4770120Y1336547D01*
X4763261Y1315973D01*
X4763261Y1281937D01*
X4770120Y1261363D01*
X4776977Y1247902D01*
X4790440Y1234186D01*
X4804156Y1227328D01*
X4831334Y1227328D01*
X4845050Y1234186D01*
X4858765Y1247902D01*
X4865624Y1261363D01*
X4872227Y1281937D01*
X4872227Y1315973D01*
X4865624Y1336547D01*
X4858765Y1350010D01*
X4845050Y1363726D01*
X4831334Y1370584D01*
X4804156Y1370584D01*
X4824729Y1254760D02*
G01*
X4865624Y1213865D01*
X4508500Y1091184D02*
G01*
X4563109Y947928D01*
X4617465Y1091184D02*
G01*
X4563109Y947928D01*
X4662677Y1091184D02*
G01*
X4662677Y947928D01*
X4662677Y1091184D02*
G01*
X4710429Y1091184D01*
X4730750Y1084326D01*
X4744465Y1070610D01*
X4751324Y1057147D01*
X4757927Y1036573D01*
X4757927Y1002537D01*
X4751324Y981963D01*
X4744465Y968502D01*
X4730750Y954786D01*
X4710429Y947928D01*
X4662677Y947928D01*
X4803140Y1091184D02*
G01*
X4803140Y947928D01*
X4803140Y1091184D02*
G01*
X4850891Y1091184D01*
X4871211Y1084326D01*
X4884927Y1070610D01*
X4891786Y1057147D01*
X4898390Y1036573D01*
X4898390Y1002537D01*
X4891786Y981963D01*
X4884927Y968502D01*
X4871211Y954786D01*
X4850891Y947928D01*
X4803140Y947928D01*
D11*
X2923717Y2624810D02*
G01*
X2923717Y1807032D01*
X3441700Y1289050D01*
X4178300Y1301750D02*
G01*
X5099050Y1301750D01*
X5105400Y1295400D01*
X2161717Y2624810D02*
G01*
X2161717Y1361617D01*
X1854200Y1054100D01*
X2415717Y2624810D02*
G01*
X2415717Y1361617D01*
X1854200Y800100D01*
X2415717Y1361617D02*
G01*
X3365500Y411835D01*
X3365500Y-584200D01*
X2679700Y5524500D02*
G01*
X2679700Y5041900D01*
X2921000Y4800600D01*
X2921000Y4405503D01*
X2923717Y4402785D01*
X2933700Y5524500D02*
G01*
X2933700Y5321300D01*
X3429000Y4826000D01*
X3429000Y4405477D01*
X3431692Y4402785D01*
X3187700Y5524500D02*
G01*
X3187700Y5334000D01*
X3683000Y4838700D01*
X3683000Y4405477D01*
X3685692Y4402785D01*
X3441700Y5524500D02*
G01*
X3441700Y5334000D01*
X3937000Y4838700D01*
X3937000Y4405477D01*
X3939692Y4402785D01*
X3695700Y5524500D02*
G01*
X3695700Y5334000D01*
X4191000Y4838700D01*
X4191000Y4405477D01*
X4193692Y4402785D01*
X406400Y5207000D02*
G01*
X1866900Y5207000D01*
X2171700Y5511800D01*
X2171700Y5524500D01*
X406400Y5207000D02*
G01*
X406400Y4425467D01*
X383717Y4402785D01*
X5624984Y252884D02*
G01*
X5624984Y-585315D01*
X5359400Y-850900D01*
X3086100Y-850900D01*
X2933700Y-698500D01*
X2933700Y-584200D01*
X2933700Y-584200D02*
G01*
X2933700Y-127000D01*
X2819400Y-12700D01*
X1905000Y-12700D01*
X1854200Y38100D01*
X2171700Y5524500D02*
G01*
X2171700Y5727700D01*
X2273300Y5829300D01*
X5461000Y5829300D01*
X5638800Y5651500D01*
X5638800Y1231900D01*
X5461000Y1054100D01*
X5118100Y1054100D01*
X5105400Y1041400D01*
X5638800Y1251694D02*
G01*
X5638800Y266700D01*
X5118100Y-254000D01*
X2669717Y2624810D02*
G01*
X2669717Y1356182D01*
X3035300Y990600D01*
X4318000Y990600D01*
X4559300Y749300D01*
X4559300Y50800D01*
X4864100Y-254000D01*
D12*
G01*
X4955692Y2624810D03*
G01*
X4701692Y2624810D03*
D13*
G01*
X4447692Y2624810D03*
D12*
G01*
X4193692Y2624810D03*
G01*
X3939692Y2624810D03*
G01*
X3685692Y2624810D03*
G01*
X3431692Y2624810D03*
D13*
G01*
X3177717Y2624810D03*
D12*
G01*
X2923717Y2624810D03*
G01*
X2669717Y2624810D03*
G01*
X129717Y2624810D03*
G01*
X383717Y2624810D03*
D13*
G01*
X637717Y2624810D03*
D12*
G01*
X891717Y2624810D03*
G01*
X1145717Y2624810D03*
G01*
X1399717Y2624810D03*
G01*
X1653717Y2624810D03*
D13*
G01*
X1907717Y2624810D03*
D12*
G01*
X2161717Y2624810D03*
G01*
X2415717Y2624810D03*
G01*
X2415717Y4402785D03*
G01*
X2161717Y4402785D03*
D13*
G01*
X1907717Y4402785D03*
D12*
G01*
X1653717Y4402785D03*
G01*
X1399717Y4402785D03*
G01*
X1145717Y4402785D03*
G01*
X891717Y4402785D03*
D13*
G01*
X637717Y4402785D03*
D12*
G01*
X383717Y4402785D03*
G01*
X129717Y4402785D03*
G01*
X2669717Y4402785D03*
G01*
X2923717Y4402785D03*
D13*
G01*
X3177717Y4402785D03*
D12*
G01*
X3431692Y4402785D03*
G01*
X3685692Y4402785D03*
G01*
X3939692Y4402785D03*
G01*
X4193692Y4402785D03*
D13*
G01*
X4447692Y4402785D03*
D12*
G01*
X4701692Y4402785D03*
G01*
X4955692Y4402785D03*
D14*
G01*
X2171700Y5524500D03*
D15*
G01*
X2425700Y5524500D03*
G01*
X2679700Y5524500D03*
G01*
X2933700Y5524500D03*
G01*
X3187700Y5524500D03*
G01*
X3441700Y5524500D03*
G01*
X3695700Y5524500D03*
G01*
X3949700Y5524500D03*
D14*
G01*
X2171700Y9461500D03*
D15*
G01*
X2425700Y9461500D03*
G01*
X2679700Y9461500D03*
G01*
X2933700Y9461500D03*
G01*
X3187700Y9461500D03*
G01*
X3441700Y9461500D03*
G01*
X3695700Y9461500D03*
G01*
X3949700Y9461500D03*
D16*
G01*
X4178300Y1301750D03*
G01*
X3441700Y1289050D03*
D17*
G01*
X5105400Y1041400D03*
G01*
X5105400Y1295400D03*
G01*
X5105400Y1549400D03*
D15*
G01*
X1854200Y292100D03*
G01*
X1854200Y546100D03*
G01*
X1854200Y800100D03*
G01*
X1854200Y1054100D03*
G01*
X1854200Y1308100D03*
G01*
X1854200Y38100D03*
G01*
X4864100Y-254000D03*
G01*
X5118100Y-254000D03*
D18*
G01*
X393700Y5702300D03*
D19*
G01*
X2717800Y-584200D03*
D18*
G01*
X406400Y5207000D03*
D19*
G01*
X2933700Y-584200D03*
G01*
X3149600Y-584200D03*
G01*
X3365500Y-584200D03*
M02*
