G04 Layer: BottomLayer*
G04 EasyEDA v6.5.23, 2023-06-25 18:40:03*
G04 6b10e09a02d447a1920506d39c92bb1f,f3d5b93f6eed4f979a6c9236d77c88b5,10*
G04 Gerber Generator version 0.2*
G04 Scale: 100 percent, Rotated: No, Reflected: No *
G04 Dimensions in millimeters *
G04 leading zeros omitted , absolute positions ,4 integer and 5 decimal *
%FSLAX45Y45*%
%MOMM*%

%ADD10C,0.3000*%
%ADD11C,1.6000*%
%ADD12R,1.6000X1.6000*%
%ADD13R,1.3995X1.3995*%
%ADD14C,1.3995*%
%ADD15C,1.5240*%
%ADD16C,1.7780*%
%ADD17O,2.999994X1.524*%
%ADD18O,1.524X2.999994*%

%LPD*%
D10*
X2425700Y5524500D02*
G01*
X2247900Y5702300D01*
X393700Y5702300D01*
X1854200Y546100D02*
G01*
X1549400Y546100D01*
X635000Y1460500D01*
X637717Y1463217D01*
X637717Y2624810D01*
X2717800Y-584200D02*
G01*
X1460500Y-584200D01*
X635000Y241300D01*
X635000Y1475214D01*
X3149600Y-584200D02*
G01*
X3149600Y-241300D01*
X1854200Y1054100D01*
X393700Y5702300D02*
G01*
X637715Y5458284D01*
X637715Y4402782D01*
X5105400Y1549400D02*
G01*
X4447692Y2207107D01*
X4447692Y2624810D01*
D11*
G01*
X4955692Y2624810D03*
G01*
X4701692Y2624810D03*
D12*
G01*
X4447692Y2624810D03*
D11*
G01*
X4193692Y2624810D03*
G01*
X3939692Y2624810D03*
G01*
X3685692Y2624810D03*
G01*
X3431692Y2624810D03*
D12*
G01*
X3177717Y2624810D03*
D11*
G01*
X2923717Y2624810D03*
G01*
X2669717Y2624810D03*
G01*
X129717Y2624810D03*
G01*
X383717Y2624810D03*
D12*
G01*
X637717Y2624810D03*
D11*
G01*
X891717Y2624810D03*
G01*
X1145717Y2624810D03*
G01*
X1399717Y2624810D03*
G01*
X1653717Y2624810D03*
D12*
G01*
X1907717Y2624810D03*
D11*
G01*
X2161717Y2624810D03*
G01*
X2415717Y2624810D03*
G01*
X2415717Y4402785D03*
G01*
X2161717Y4402785D03*
D12*
G01*
X1907717Y4402785D03*
D11*
G01*
X1653717Y4402785D03*
G01*
X1399717Y4402785D03*
G01*
X1145717Y4402785D03*
G01*
X891717Y4402785D03*
D12*
G01*
X637717Y4402785D03*
D11*
G01*
X383717Y4402785D03*
G01*
X129717Y4402785D03*
G01*
X2669717Y4402785D03*
G01*
X2923717Y4402785D03*
D12*
G01*
X3177717Y4402785D03*
D11*
G01*
X3431692Y4402785D03*
G01*
X3685692Y4402785D03*
G01*
X3939692Y4402785D03*
G01*
X4193692Y4402785D03*
D12*
G01*
X4447692Y4402785D03*
D11*
G01*
X4701692Y4402785D03*
G01*
X4955692Y4402785D03*
D13*
G01*
X2171700Y5524500D03*
D14*
G01*
X2425700Y5524500D03*
G01*
X2679700Y5524500D03*
G01*
X2933700Y5524500D03*
G01*
X3187700Y5524500D03*
G01*
X3441700Y5524500D03*
G01*
X3695700Y5524500D03*
G01*
X3949700Y5524500D03*
D13*
G01*
X2171700Y9461500D03*
D14*
G01*
X2425700Y9461500D03*
G01*
X2679700Y9461500D03*
G01*
X2933700Y9461500D03*
G01*
X3187700Y9461500D03*
G01*
X3441700Y9461500D03*
G01*
X3695700Y9461500D03*
G01*
X3949700Y9461500D03*
D15*
G01*
X4178300Y1301750D03*
G01*
X3441700Y1289050D03*
D16*
G01*
X5105400Y1041400D03*
G01*
X5105400Y1295400D03*
G01*
X5105400Y1549400D03*
D14*
G01*
X1854200Y292100D03*
G01*
X1854200Y546100D03*
G01*
X1854200Y800100D03*
G01*
X1854200Y1054100D03*
G01*
X1854200Y1308100D03*
G01*
X1854200Y38100D03*
G01*
X4864100Y-254000D03*
G01*
X5118100Y-254000D03*
D17*
G01*
X393700Y5702300D03*
D18*
G01*
X2717800Y-584200D03*
D17*
G01*
X406400Y5207000D03*
D18*
G01*
X2933700Y-584200D03*
G01*
X3149600Y-584200D03*
G01*
X3365500Y-584200D03*
M02*
