G04 Layer: TopSilkscreenLayer*
G04 EasyEDA v6.5.23, 2023-06-25 18:40:03*
G04 6b10e09a02d447a1920506d39c92bb1f,f3d5b93f6eed4f979a6c9236d77c88b5,10*
G04 Gerber Generator version 0.2*
G04 Scale: 100 percent, Rotated: No, Reflected: No *
G04 Dimensions in millimeters *
G04 leading zeros omitted , absolute positions ,4 integer and 5 decimal *
%FSLAX45Y45*%
%MOMM*%

%ADD10C,0.2032*%
%ADD11C,0.1524*%
%ADD12C,0.2540*%

%LPD*%
D10*
X5192522Y3162300D02*
G01*
X5386324Y3162300D01*
X5192522Y3162300D02*
G01*
X5192522Y3245357D01*
X5201665Y3273044D01*
X5210809Y3282442D01*
X5229352Y3291586D01*
X5257038Y3291586D01*
X5275579Y3282442D01*
X5284724Y3273044D01*
X5294122Y3245357D01*
X5294122Y3162300D01*
X5192522Y3352545D02*
G01*
X5386324Y3352545D01*
X5238750Y3552189D02*
G01*
X5220208Y3542792D01*
X5201665Y3524250D01*
X5192522Y3505962D01*
X5192522Y3468878D01*
X5201665Y3450589D01*
X5220208Y3432047D01*
X5238750Y3422650D01*
X5266436Y3413505D01*
X5312409Y3413505D01*
X5340350Y3422650D01*
X5358638Y3432047D01*
X5377179Y3450589D01*
X5386324Y3468878D01*
X5386324Y3505962D01*
X5377179Y3524250D01*
X5358638Y3542792D01*
X5340350Y3552189D01*
X5192522Y3668521D02*
G01*
X5201665Y3649979D01*
X5220208Y3631437D01*
X5238750Y3622294D01*
X5266436Y3613150D01*
X5312409Y3613150D01*
X5340350Y3622294D01*
X5358638Y3631437D01*
X5377179Y3649979D01*
X5386324Y3668521D01*
X5386324Y3705352D01*
X5377179Y3723894D01*
X5358638Y3742436D01*
X5340350Y3751579D01*
X5312409Y3760723D01*
X5266436Y3760723D01*
X5238750Y3751579D01*
X5220208Y3742436D01*
X5201665Y3723894D01*
X5192522Y3705352D01*
X5192522Y3668521D01*
X112521Y7721600D02*
G01*
X306323Y7721600D01*
X112521Y7850886D02*
G01*
X306323Y7850886D01*
X204723Y7721600D02*
G01*
X204723Y7850886D01*
X112521Y7967218D02*
G01*
X121665Y7948929D01*
X140207Y7930387D01*
X158750Y7920989D01*
X186436Y7911845D01*
X232410Y7911845D01*
X260350Y7920989D01*
X278637Y7930387D01*
X297179Y7948929D01*
X306323Y7967218D01*
X306323Y8004302D01*
X297179Y8022589D01*
X278637Y8041131D01*
X260350Y8050529D01*
X232410Y8059673D01*
X186436Y8059673D01*
X158750Y8050529D01*
X140207Y8041131D01*
X121665Y8022589D01*
X112521Y8004302D01*
X112521Y7967218D01*
X158750Y8259063D02*
G01*
X140207Y8249920D01*
X121665Y8231378D01*
X112521Y8213089D01*
X112521Y8176005D01*
X121665Y8157463D01*
X140207Y8139176D01*
X158750Y8129778D01*
X186436Y8120634D01*
X232410Y8120634D01*
X260350Y8129778D01*
X278637Y8139176D01*
X297179Y8157463D01*
X306323Y8176005D01*
X306323Y8213089D01*
X297179Y8231378D01*
X278637Y8249920D01*
X260350Y8259063D01*
X232410Y8259063D01*
X232410Y8213089D02*
G01*
X232410Y8259063D01*
X112521Y8320023D02*
G01*
X250952Y8320023D01*
X278637Y8329421D01*
X297179Y8347710D01*
X306323Y8375650D01*
X306323Y8393937D01*
X297179Y8421624D01*
X278637Y8440165D01*
X250952Y8449310D01*
X112521Y8449310D01*
X112521Y8510270D02*
G01*
X306323Y8510270D01*
X112521Y8510270D02*
G01*
X112521Y8630412D01*
X204723Y8510270D02*
G01*
X204723Y8584184D01*
X306323Y8510270D02*
G01*
X306323Y8630412D01*
X158750Y8985250D02*
G01*
X149352Y8985250D01*
X130810Y8994394D01*
X121665Y9003537D01*
X112521Y9022079D01*
X112521Y9058910D01*
X121665Y9077452D01*
X130810Y9086850D01*
X149352Y9095994D01*
X167894Y9095994D01*
X186436Y9086850D01*
X214121Y9068308D01*
X306323Y8975852D01*
X306323Y9105137D01*
X112521Y9221470D02*
G01*
X121665Y9193784D01*
X149352Y9175495D01*
X195579Y9166097D01*
X223265Y9166097D01*
X269494Y9175495D01*
X297179Y9193784D01*
X306323Y9221470D01*
X306323Y9240012D01*
X297179Y9267697D01*
X269494Y9286239D01*
X223265Y9295384D01*
X195579Y9295384D01*
X149352Y9286239D01*
X121665Y9267697D01*
X112521Y9240012D01*
X112521Y9221470D01*
X158750Y9365742D02*
G01*
X149352Y9365742D01*
X130810Y9374886D01*
X121665Y9384029D01*
X112521Y9402571D01*
X112521Y9439655D01*
X121665Y9457944D01*
X130810Y9467342D01*
X149352Y9476486D01*
X167894Y9476486D01*
X186436Y9467342D01*
X214121Y9448800D01*
X306323Y9356344D01*
X306323Y9485629D01*
X112521Y9565131D02*
G01*
X112521Y9666731D01*
X186436Y9611360D01*
X186436Y9639045D01*
X195579Y9657587D01*
X204723Y9666731D01*
X232410Y9676129D01*
X250952Y9676129D01*
X278637Y9666731D01*
X297179Y9648189D01*
X306323Y9620504D01*
X306323Y9592818D01*
X297179Y9565131D01*
X288036Y9555987D01*
X269494Y9546589D01*
X2017522Y228600D02*
G01*
X2211324Y228600D01*
X2211324Y228600D02*
G01*
X2211324Y339344D01*
X2017522Y400304D02*
G01*
X2155952Y400304D01*
X2183638Y409702D01*
X2202179Y427989D01*
X2211324Y455929D01*
X2211324Y474218D01*
X2202179Y501904D01*
X2183638Y520445D01*
X2155952Y529589D01*
X2017522Y529589D01*
X2017522Y590550D02*
G01*
X2211324Y720089D01*
X2017522Y720089D02*
G01*
X2211324Y590550D01*
X4687570Y776478D02*
G01*
X4687570Y582676D01*
X4622800Y776478D02*
G01*
X4752086Y776478D01*
X4813045Y776478D02*
G01*
X4813045Y582676D01*
X4942331Y776478D02*
G01*
X4942331Y582676D01*
X4813045Y684276D02*
G01*
X4942331Y684276D01*
X5003291Y776478D02*
G01*
X5003291Y582676D01*
X5003291Y776478D02*
G01*
X5123434Y776478D01*
X5003291Y684276D02*
G01*
X5077206Y684276D01*
X5003291Y582676D02*
G01*
X5123434Y582676D01*
X5184393Y776478D02*
G01*
X5184393Y582676D01*
X5184393Y776478D02*
G01*
X5267452Y776478D01*
X5295138Y767334D01*
X5304536Y758189D01*
X5313679Y739647D01*
X5313679Y721105D01*
X5304536Y702563D01*
X5295138Y693420D01*
X5267452Y684276D01*
X5184393Y684276D01*
X5248909Y684276D02*
G01*
X5313679Y582676D01*
X5374640Y776478D02*
G01*
X5374640Y582676D01*
X5374640Y776478D02*
G01*
X5448554Y582676D01*
X5522468Y776478D02*
G01*
X5448554Y582676D01*
X5522468Y776478D02*
G01*
X5522468Y582676D01*
X3685286Y-508507D02*
G01*
X3666743Y-489965D01*
X3639058Y-480821D01*
X3602227Y-480821D01*
X3574541Y-489965D01*
X3556000Y-508507D01*
X3556000Y-527050D01*
X3565143Y-545337D01*
X3574541Y-554736D01*
X3592829Y-563879D01*
X3648456Y-582421D01*
X3666743Y-591565D01*
X3676141Y-600710D01*
X3685286Y-619252D01*
X3685286Y-646937D01*
X3666743Y-665479D01*
X3639058Y-674623D01*
X3602227Y-674623D01*
X3574541Y-665479D01*
X3556000Y-646937D01*
X3801618Y-480821D02*
G01*
X3783329Y-489965D01*
X3764788Y-508507D01*
X3755390Y-527050D01*
X3746245Y-554736D01*
X3746245Y-600710D01*
X3755390Y-628650D01*
X3764788Y-646937D01*
X3783329Y-665479D01*
X3801618Y-674623D01*
X3838702Y-674623D01*
X3856990Y-665479D01*
X3875531Y-646937D01*
X3884929Y-628650D01*
X3894074Y-600710D01*
X3894074Y-554736D01*
X3884929Y-527050D01*
X3875531Y-508507D01*
X3856990Y-489965D01*
X3838702Y-480821D01*
X3801618Y-480821D01*
X3955034Y-480821D02*
G01*
X3955034Y-674623D01*
X4015993Y-480821D02*
G01*
X4015993Y-674623D01*
X4015993Y-674623D02*
G01*
X4126738Y-674623D01*
D11*
X-280415Y3505200D02*
G01*
X-202437Y3505200D01*
X-186944Y3510279D01*
X-176529Y3520694D01*
X-171450Y3536442D01*
X-171450Y3546855D01*
X-176529Y3562350D01*
X-186944Y3572763D01*
X-202437Y3577844D01*
X-280415Y3577844D01*
X-259587Y3612134D02*
G01*
X-264921Y3622547D01*
X-280415Y3638295D01*
X-171450Y3638295D01*
X3060700Y9830815D02*
G01*
X3060700Y9721850D01*
X3060700Y9721850D02*
G01*
X3122929Y9721850D01*
X3235197Y9804908D02*
G01*
X3230118Y9815321D01*
X3219704Y9825736D01*
X3209290Y9830815D01*
X3188461Y9830815D01*
X3178047Y9825736D01*
X3167634Y9815321D01*
X3162554Y9804908D01*
X3157220Y9789160D01*
X3157220Y9763252D01*
X3162554Y9747758D01*
X3167634Y9737344D01*
X3178047Y9726929D01*
X3188461Y9721850D01*
X3209290Y9721850D01*
X3219704Y9726929D01*
X3230118Y9737344D01*
X3235197Y9747758D01*
X3269488Y9830815D02*
G01*
X3269488Y9721850D01*
X3269488Y9830815D02*
G01*
X3305809Y9830815D01*
X3321558Y9825736D01*
X3331972Y9815321D01*
X3337052Y9804908D01*
X3342386Y9789160D01*
X3342386Y9763252D01*
X3337052Y9747758D01*
X3331972Y9737344D01*
X3321558Y9726929D01*
X3305809Y9721850D01*
X3269488Y9721850D01*
D12*
X-7289Y2463800D02*
G01*
X-7289Y4563795D01*
X5092700Y4563795D02*
G01*
X-7289Y4563795D01*
X5092700Y2463800D02*
G01*
X5092700Y4563795D01*
X5092700Y2463800D02*
G01*
X-7289Y2463800D01*
X-137287Y3113811D02*
G01*
X-137287Y3913809D01*
X462711Y3913809D01*
X462711Y3113811D01*
X-137287Y3113811D01*
X800100Y9690100D02*
G01*
X5321300Y9690100D01*
X5321300Y5270500D01*
X800100Y5270500D01*
X800100Y9690100D01*
X2044700Y5588000D02*
G01*
X2108200Y5651500D01*
X2235200Y5651500D01*
X2298700Y5588000D01*
X2362200Y5651500D01*
X2489200Y5651500D01*
X2552700Y5588000D01*
X2616200Y5651500D01*
X2743200Y5651500D01*
X2806700Y5588000D01*
X2870200Y5651500D01*
X2997200Y5651500D01*
X3060700Y5588000D01*
X3124200Y5651500D01*
X3251200Y5651500D01*
X3314700Y5588000D01*
X3378200Y5651500D01*
X3505200Y5651500D01*
X3568700Y5588000D01*
X3632200Y5651500D01*
X3759200Y5651500D01*
X3822700Y5588000D01*
X3886200Y5651500D01*
X4013200Y5651500D01*
X4076700Y5588000D01*
X4076700Y5461000D01*
X4013200Y5397500D01*
X3886200Y5397500D01*
X3822700Y5461000D01*
X3759200Y5397500D01*
X3632200Y5397500D01*
X3568700Y5461000D01*
X3505200Y5397500D01*
X3378200Y5397500D01*
X3314700Y5461000D01*
X3251200Y5397500D01*
X3124200Y5397500D01*
X3060700Y5461000D01*
X2997200Y5397500D01*
X2870200Y5397500D01*
X2806700Y5461000D01*
X2743200Y5397500D01*
X2616200Y5397500D01*
X2552700Y5461000D01*
X2489200Y5397500D01*
X2362200Y5397500D01*
X2298700Y5461000D01*
X2235200Y5397500D01*
X2108200Y5397500D01*
X2044700Y5461000D01*
X2044700Y5588000D01*
X2044700Y9525000D02*
G01*
X2108200Y9588500D01*
X2235200Y9588500D01*
X2298700Y9525000D01*
X2362200Y9588500D01*
X2489200Y9588500D01*
X2552700Y9525000D01*
X2616200Y9588500D01*
X2743200Y9588500D01*
X2806700Y9525000D01*
X2870200Y9588500D01*
X2997200Y9588500D01*
X3060700Y9525000D01*
X3124200Y9588500D01*
X3251200Y9588500D01*
X3314700Y9525000D01*
X3378200Y9588500D01*
X3505200Y9588500D01*
X3568700Y9525000D01*
X3632200Y9588500D01*
X3759200Y9588500D01*
X3822700Y9525000D01*
X3886200Y9588500D01*
X4013200Y9588500D01*
X4076700Y9525000D01*
X4076700Y9398000D01*
X4013200Y9334500D01*
X3886200Y9334500D01*
X3822700Y9398000D01*
X3759200Y9334500D01*
X3632200Y9334500D01*
X3568700Y9398000D01*
X3505200Y9334500D01*
X3378200Y9334500D01*
X3314700Y9398000D01*
X3251200Y9334500D01*
X3124200Y9334500D01*
X3060700Y9398000D01*
X2997200Y9334500D01*
X2870200Y9334500D01*
X2806700Y9398000D01*
X2743200Y9334500D01*
X2616200Y9334500D01*
X2552700Y9398000D01*
X2489200Y9334500D01*
X2362200Y9334500D01*
X2298700Y9398000D01*
X2235200Y9334500D01*
X2108200Y9334500D01*
X2044700Y9398000D01*
X2044700Y9525000D01*
X1028700Y9131300D02*
G01*
X5092700Y9131300D01*
X5092700Y5727700D01*
X1028700Y5727700D01*
X1028700Y9131300D01*
X1485900Y5854700D02*
G01*
X4635500Y5854700D01*
X1231900Y6108700D02*
G01*
X1231900Y8216900D01*
X1485900Y8470900D02*
G01*
X4635500Y8470900D01*
X4889500Y6108700D02*
G01*
X4889500Y8216900D01*
X4330700Y1441450D02*
G01*
X4330700Y1149350D01*
X3276600Y1149350D01*
X3276600Y1441450D01*
X4330700Y1441450D01*
X4955687Y1110109D02*
G01*
X4955687Y1506090D01*
G75*
G01*
X1231903Y6108703D02*
G03*
X1485903Y5854703I253999J-1D01*
G75*
G01*
X4635497Y5854703D02*
G03*
X4889497Y6108703I1J253999D01*
G75*
G01*
X4889497Y8216897D02*
G03*
X4635497Y8470897I-253999J1D01*
G75*
G01*
X1485903Y8470897D02*
G03*
X1231903Y8216897I-1J-253999D01*
G75*
G01*
X4955560Y1109980D02*
G03*
X4955560Y1506220I149840J198120D01*
M02*
